<svg width="60" height="60" viewBox="0 0 60 60" fill="none" xmlns="http://www.w3.org/2000/svg">
<path fill-rule="evenodd" clip-rule="evenodd" d="M6.89475 18.465C7.45725 16.3245 8.8425 14.4735 10.7347 13.3597C11.6688 12.8101 12.7034 12.4528 13.7776 12.3088C14.8518 12.1648 15.9439 12.237 16.9897 12.5212C18.0342 12.8082 19.0117 13.2986 19.8661 13.9643C20.7206 14.6299 21.4352 15.4578 21.969 16.4002L22.41 17.1802C22.7458 17.0083 23.0981 16.8706 23.4615 16.7692L23.514 16.7542C24.2294 16.5563 24.9774 16.5047 25.7133 16.6025C26.4491 16.7003 27.1576 16.9455 27.7965 17.3235C29.1007 18.0953 30.0449 19.3536 30.4215 20.8215L30.4358 20.8755C30.4838 21.064 30.5227 21.2535 30.5527 21.444C31.8992 21.6571 33.1414 22.2976 34.0957 23.271L34.1407 23.316C34.2437 23.421 34.3427 23.5295 34.4377 23.6415C33.8105 24.2718 33.2659 24.9792 32.817 25.7467L32.292 26.6445C31.8527 26.4258 31.393 26.2507 30.9195 26.1217C29.0729 25.6221 27.1038 25.8714 25.44 26.8155C24.5124 27.3445 23.7158 28.0756 23.1095 28.9546C22.5031 29.8337 22.1025 30.838 21.9375 31.893C20.0701 32.1796 18.3583 33.1002 17.0895 34.5H9.4395C8.59499 34.4998 7.75899 34.3312 6.9804 34.0042C6.20181 33.6771 5.49626 33.198 4.905 32.595L4.86 32.5492C3.66794 31.3338 3.00013 29.6992 3 27.9967V27.8692C3 26.1667 3.6675 24.5317 4.86 23.316L4.905 23.2702C5.42862 22.7369 6.04196 22.2997 6.717 21.9787C6.53322 20.808 6.59374 19.6112 6.89475 18.465Z" fill="#56CCF2"/>
<path d="M22.41 17.1803L21.105 17.919C21.2957 18.2556 21.6092 18.5055 21.9798 18.6165C22.3505 18.7275 22.7497 18.6909 23.094 18.5145L22.41 17.1803ZM30.5527 21.444L29.07 21.6743C29.1187 21.9882 29.2657 22.2785 29.49 22.5035C29.7143 22.7284 30.0042 22.8764 30.318 22.926L30.5527 21.444ZM34.4377 23.6415L35.5005 24.6997C35.7666 24.4326 35.9223 24.075 35.9366 23.6982C35.9509 23.3214 35.8228 22.9531 35.5777 22.6665L34.4377 23.6415ZM32.292 26.6445L31.6207 27.9855C31.9615 28.156 32.3544 28.1904 32.7197 28.0818C33.0849 27.9731 33.3951 27.7296 33.5872 27.4005L32.292 26.6445ZM21.9382 31.893L22.1632 33.3765C22.4788 33.3286 22.7708 33.1813 22.9968 32.9561C23.2229 32.7308 23.3712 32.4393 23.4202 32.124L21.9382 31.893ZM17.0887 34.5V36C17.2986 35.9999 17.506 35.9558 17.6978 35.8706C17.8895 35.7853 18.0612 35.6608 18.2017 35.505L17.0887 34.5ZM10.8315 34.5L10.9492 33.0038C10.9096 33.0009 10.8698 32.9997 10.83 33L10.8315 34.5ZM6.717 21.9788L7.35975 23.334C7.65236 23.1953 7.89222 22.9656 8.0435 22.6793C8.19477 22.393 8.24932 22.0654 8.199 21.7455L6.717 21.9788ZM9.97275 12.0675C7.734 13.386 6.105 15.5678 5.4435 18.084L8.34525 18.8468C8.80875 17.0813 9.95175 15.5618 11.4952 14.6528L9.97275 12.0675ZM17.385 11.0745C16.1457 10.7374 14.8515 10.6516 13.5785 10.8221C12.3056 10.9926 11.0796 11.4161 9.97275 12.0675L11.4952 14.6528C12.2567 14.2048 13.0999 13.9136 13.9755 13.7961C14.851 13.6786 15.7412 13.7373 16.5937 13.9688L17.385 11.0745ZM23.274 15.6608C22.6427 14.5462 21.7975 13.5673 20.7869 12.7803C19.7763 11.9933 18.6202 11.4136 17.385 11.0745L16.5937 13.9688C17.4473 14.2035 18.2461 14.6043 18.9444 15.1483C19.6428 15.6923 20.2269 16.3688 20.6632 17.139L23.274 15.6608ZM23.7157 16.4408L23.274 15.6608L20.664 17.1383L21.105 17.919L23.7157 16.4408ZM23.0587 15.324C22.5984 15.4524 22.1522 15.6268 21.7267 15.8445L23.094 18.5145C23.3398 18.389 23.5976 18.2885 23.8635 18.2145L23.0587 15.324ZM23.1112 15.309L23.0587 15.324L23.8635 18.2145L23.9167 18.1995L23.1112 15.309ZM28.5577 16.0313C27.7452 15.5509 26.8441 15.2394 25.9085 15.1153C24.9728 14.9912 24.0209 15.0571 23.1112 15.309L23.9167 18.1995C24.4379 18.0555 24.9828 18.0182 25.5188 18.0897C26.0548 18.1612 26.5708 18.3402 27.036 18.6158L28.5577 16.0313ZM31.8742 20.4465C31.398 18.5932 30.205 17.005 28.5577 16.0313L27.036 18.6158C27.9969 19.1855 28.6916 20.1135 28.9687 21.1958L31.8742 20.4465ZM31.8877 20.5012L31.8742 20.4473L28.9687 21.1958L28.983 21.2505L31.8877 20.5012ZM32.0347 21.2145C31.9973 20.9745 31.9483 20.7365 31.8877 20.5012L28.983 21.2505C29.019 21.391 29.048 21.5318 29.07 21.6743L32.0347 21.2145ZM35.1667 22.2203C33.9868 21.0173 32.4511 20.2258 30.7867 19.9628L30.318 22.9253C31.3466 23.0878 32.2955 23.5769 33.0247 24.3202L35.1667 22.2203ZM35.211 22.266L35.1667 22.2203L33.0247 24.321L33.0697 24.366L35.211 22.266ZM35.5777 22.6665C35.4602 22.529 35.338 22.3955 35.211 22.266L33.0697 24.366C33.1492 24.4475 33.225 24.531 33.2985 24.6165L35.5777 22.6665ZM34.1122 26.5043C34.4992 25.842 34.9672 25.236 35.5005 24.6997L33.375 22.5833C32.6625 23.298 32.0385 24.1057 31.5217 24.9907L34.1122 26.5043ZM33.5872 27.4005L34.1122 26.5043L31.5217 24.9907L30.9967 25.8877L33.5872 27.4005ZM30.5295 27.57C30.9082 27.672 31.2742 27.8122 31.6207 27.9855L32.964 25.3035C32.435 25.0397 31.8813 24.8287 31.311 24.6735L30.5295 27.57ZM26.184 28.1183C27.5038 27.3704 29.0653 27.1734 30.5295 27.57L31.311 24.6735C29.0817 24.0707 26.7046 24.3726 24.6967 25.5135L26.184 28.1183ZM23.5417 31.5442C23.7335 30.8267 24.0657 30.1544 24.5193 29.5663C24.9729 28.9782 25.5387 28.486 26.184 28.1183L24.6975 25.5127C23.7072 26.0775 22.8381 26.8334 22.1423 27.7364C21.4464 28.6395 20.9368 29.6717 20.643 30.7732L23.5417 31.5442ZM23.4202 32.124C23.4502 31.929 23.4907 31.7357 23.5417 31.5442L20.643 30.7732C20.5645 31.0672 20.502 31.364 20.4555 31.6635L23.4202 32.124ZM18.4575 35.238C19.4659 34.2428 20.7628 33.5913 22.1632 33.3765L21.7132 30.4103C19.686 30.7203 17.8093 31.6633 16.35 33.1042L18.4575 35.238ZM18.2017 35.505C18.2842 35.4135 18.3695 35.325 18.4575 35.238L16.35 33.1042C16.222 33.2307 16.0975 33.3615 15.9765 33.495L18.2017 35.505ZM10.8472 36H17.0887V33H10.8472V36ZM10.713 35.9947C10.758 35.9982 10.8027 36 10.8472 36V33C10.8807 33 10.9147 33.0013 10.9492 33.0038L10.713 35.9947ZM9.43875 35.9992H10.8307V32.9993H9.43875V35.9992ZM3.83325 33.645C4.56414 34.3905 5.43633 34.9827 6.39882 35.387C7.36131 35.7914 8.39477 35.999 9.43875 35.9992V32.9993C8.79371 32.9991 8.15518 32.8711 7.56048 32.6213C6.96579 32.3714 6.42688 32.0056 5.97525 31.545L3.83325 33.645ZM3.78825 33.6L3.83325 33.645L5.97525 31.545L5.93025 31.4993L3.78825 33.6ZM1.5 27.9952C1.4996 30.0912 2.32148 32.1028 3.789 33.5992L5.931 31.5C5.01368 30.5647 4.49987 29.3068 4.5 27.9967L1.5 27.9952ZM1.5 27.8678V27.9952H4.5V27.8678H1.5ZM3.789 22.266C2.32184 23.762 1.49999 25.7724 1.5 27.8678H4.5C4.50007 26.5579 5.01386 25.3011 5.931 24.366L3.789 22.266ZM3.834 22.2195L3.789 22.2645L5.931 24.366L5.97525 24.3202L3.834 22.2195ZM6.07425 20.622C5.23927 21.0188 4.48144 21.5596 3.834 22.2195L5.97525 24.3202C6.37543 23.913 6.84405 23.5791 7.35975 23.334L6.07425 20.622ZM5.44425 18.0833C5.09057 19.4301 5.01958 20.8356 5.23575 22.2113L8.19825 21.7448C8.04676 20.7787 8.09681 19.7925 8.34525 18.8468L5.44425 18.0833Z" fill="#56CCF2"/>
<path fill-rule="evenodd" clip-rule="evenodd" d="M47.1555 21.9278C49.548 23.2928 51.3225 25.5683 52.0395 28.2128C52.4265 29.6385 52.4963 31.1198 52.2615 32.5545C53.1273 32.9543 53.9173 33.5011 54.5963 34.1708C55.3549 34.9202 55.9578 35.8123 56.3702 36.7957C56.7826 37.7791 56.9964 38.8344 56.9993 39.9008C56.9993 42.0465 56.1233 44.121 54.5963 45.63C53.0661 47.1423 51.0033 47.9931 48.852 47.9993H47.0325L47.013 48H23.1465C21.0023 48 18.9277 47.1375 17.4022 45.63C16.6439 44.8807 16.0413 43.9888 15.629 43.0057C15.2167 42.0225 15.003 40.9676 15 39.9015C15.0037 38.8352 15.2179 37.7802 15.6302 36.7969C16.0426 35.8136 16.645 34.9214 17.403 34.1715C18.6371 32.9536 20.2243 32.1567 21.9383 31.8945C22.1022 30.8391 22.5024 29.8344 23.1088 28.9552C23.7153 28.076 24.5124 27.3451 25.4408 26.817C27.1044 25.8726 29.0736 25.623 30.9203 26.1225C31.3938 26.2514 31.8535 26.4265 32.2928 26.6453L32.817 25.7475C34.2239 23.3452 36.5249 21.5978 39.2168 20.8875C41.8975 20.1834 44.7466 20.5568 47.1555 21.9278Z" fill="#2F80ED"/>
<path d="M52.2615 32.5545L50.7817 32.3123C50.7287 32.6359 50.7832 32.9681 50.937 33.2578C51.0907 33.5476 51.3352 33.779 51.633 33.9165L52.2615 32.5545ZM47.0317 47.9993V46.4993C46.9942 46.4993 46.9562 46.5008 46.9177 46.5038L47.0317 47.9993ZM24.9817 47.9993L25.0162 46.5H24.9817V47.9993ZM21.9375 31.8938L22.1625 33.3765C22.478 33.3286 22.77 33.1813 22.9961 32.9561C23.2221 32.7308 23.3704 32.4393 23.4195 32.124L21.9375 31.8938ZM32.292 26.6445L31.62 27.9855C31.9608 28.156 32.3537 28.1904 32.7189 28.0818C33.0841 27.9731 33.3943 27.7296 33.5865 27.4005L32.292 26.6445ZM53.487 27.8205C52.6642 24.786 50.6332 22.1843 47.8995 20.6243L46.413 23.2305C48.4635 24.4005 49.9807 26.3505 50.592 28.6058L53.487 27.8205ZM53.7427 32.796C54.0136 31.1383 53.9259 29.4418 53.487 27.8205L50.592 28.6058C50.922 29.8223 50.982 31.086 50.7817 32.3123L53.7427 32.796ZM55.6507 33.1035C54.8481 32.3117 53.9143 31.6651 52.8907 31.1925L51.633 33.9165C52.3407 34.2432 52.9865 34.6901 53.5417 35.2373L55.6507 33.1035ZM58.4992 39.9C58.4992 37.3478 57.459 34.8908 55.6507 33.1035L53.5417 35.2373C54.1592 35.8471 54.65 36.573 54.9859 37.3732C55.3219 38.1734 55.4963 39.0321 55.4992 39.9H58.4992ZM55.6507 46.6973C56.5506 45.8083 57.2655 44.75 57.7544 43.5833C58.2433 42.4167 58.4964 41.1649 58.4992 39.9H55.4992C55.4992 41.6415 54.7867 43.3328 53.5417 44.5628L55.6507 46.6973ZM48.852 49.4993C51.398 49.4932 53.8398 48.4869 55.6507 46.6973L53.5417 44.5628C52.2926 45.7979 50.6087 46.4935 48.852 46.5V49.4993ZM47.0317 49.4993H48.852V46.5L47.0317 46.4993V49.4993ZM46.9177 46.5038C46.9492 46.5013 46.9807 46.5 47.0122 46.5V49.5C47.0572 49.5 47.1017 49.4983 47.1457 49.4948L46.9177 46.5038ZM47.0122 46.5H24.9877V49.5H47.0122V46.5ZM24.9877 46.5H25.0162L24.9472 49.5H24.9877V46.5ZM23.1465 49.5H24.9817V46.5H23.1465V49.5ZM16.3485 46.698C18.1593 48.4875 20.6007 49.4938 23.1465 49.5V46.5C21.3899 46.4937 19.706 45.7984 18.4567 44.5635L16.3485 46.698ZM13.4992 39.9C13.4992 42.4523 14.5395 44.9108 16.3485 46.698L18.4567 44.5635C17.8395 43.9537 17.3489 43.2271 17.0131 42.427C16.6773 41.627 16.5029 40.7684 16.5 39.9008L13.4992 39.9ZM16.3485 33.1043C15.4486 33.9931 14.7336 35.0505 14.2446 36.217C13.7555 37.3834 13.5022 38.6352 13.4992 39.9H16.4992C16.4992 38.1593 17.2117 36.468 18.4567 35.2373L16.3485 33.1043ZM21.7117 30.4095C19.6845 30.7196 17.807 31.6625 16.3477 33.1035L18.4567 35.2373C19.4652 34.242 20.762 33.5913 22.1625 33.3765L21.7117 30.4095ZM20.6422 30.7725C20.5648 31.0659 20.5022 31.363 20.4547 31.6628L23.4195 32.124C23.4495 31.929 23.49 31.7358 23.541 31.5443L20.6422 30.7725ZM24.696 25.5128C23.7057 26.0775 22.8374 26.8326 22.1415 27.7357C21.4456 28.6387 20.936 29.6709 20.6422 30.7725L23.541 31.5443C23.7328 30.8269 24.0651 30.1539 24.5187 29.566C24.9722 28.978 25.538 28.4859 26.1832 28.1183L24.696 25.5128ZM31.3102 24.6728C29.081 24.07 26.7038 24.3719 24.696 25.5128L26.1832 28.1183C27.5029 27.3702 29.0645 27.1729 30.5287 27.5693L31.3102 24.6728ZM32.964 25.3028C32.4348 25.0389 31.8808 24.8279 31.3102 24.6728L30.5287 27.5693C30.9051 27.6719 31.2706 27.8119 31.62 27.9855L32.964 25.3028ZM31.521 24.9908L30.996 25.887L33.5865 27.4005L34.1115 26.5028L31.521 24.9908ZM38.832 19.437C35.7567 20.2488 33.1281 22.2461 31.521 24.9908L34.1115 26.5028C35.3187 24.4428 37.2919 22.9448 39.6007 22.3365L38.832 19.437ZM47.8995 20.6235C45.1484 19.0576 41.8934 18.6317 38.832 19.437L39.6007 22.3365C41.9009 21.733 44.3452 22.0533 46.4122 23.229L47.8995 20.6235Z" fill="#2F80ED"/>
</svg>
