<svg width="60" height="60" viewBox="0 0 60 60" fill="none" xmlns="http://www.w3.org/2000/svg">
<g clip-path="url(#clip0_388_167)">
<path fill-rule="evenodd" clip-rule="evenodd" d="M25.9457 0.574282C23.4414 -0.0699278 20.8285 -0.173505 18.281 0.27044C15.7336 0.714385 13.3098 1.69568 11.171 3.14904C9.03215 4.6024 7.22731 6.49452 5.8765 8.69955C4.52569 10.9046 3.65987 13.3719 3.33664 15.9375C3.01341 18.5032 3.24018 21.1082 4.00185 23.5793C4.76353 26.0505 6.04266 28.3312 7.75415 30.2696C9.46565 32.2081 11.5703 33.7599 13.9281 34.8218C16.2858 35.8837 18.8427 36.4315 21.4286 36.4286H43.9286C47.3385 36.4286 50.6088 35.074 53.0199 32.6628C55.4311 30.2516 56.7857 26.9814 56.7857 23.5714C56.7857 20.1615 55.4311 16.8912 53.0199 14.4801C50.6088 12.0689 47.3385 10.7143 43.9286 10.7143H43.92C42.0485 10.7152 40.1997 11.1248 38.5029 11.9143C37.4833 9.14925 35.8081 6.67289 33.6209 4.69773C31.4338 2.72257 28.8 1.30761 25.9457 0.574282Z" fill="#8FBFFA"/>
<path fill-rule="evenodd" clip-rule="evenodd" d="M20.9357 41.0571C21.6973 41.4379 22.2766 42.1053 22.5466 42.9129C22.8166 43.7204 22.7551 44.602 22.3757 45.3643L20.2329 49.65C20.0463 50.031 19.7862 50.3713 19.4675 50.6513C19.1489 50.9313 18.7779 51.1454 18.3761 51.2814C17.9742 51.4173 17.5495 51.4724 17.1263 51.4434C16.703 51.4144 16.2898 51.3019 15.9102 51.1124C15.5307 50.9229 15.1924 50.6602 14.9149 50.3394C14.6374 50.0185 14.4261 49.6459 14.2933 49.243C14.1605 48.8402 14.1087 48.415 14.141 47.992C14.1733 47.569 14.289 47.1566 14.4814 46.7786L16.6243 42.4928C17.0051 41.7302 17.6732 41.15 18.4818 40.88C19.2903 40.6099 20.173 40.6764 20.9357 41.0571ZM41.9357 41.0571C42.6973 41.4379 43.2766 42.1053 43.5466 42.9129C43.8166 43.7204 43.7551 44.602 43.3757 45.3643L41.2329 49.65C41.0463 50.031 40.7862 50.3713 40.4675 50.6513C40.1489 50.9313 39.7779 51.1454 39.3761 51.2814C38.9742 51.4173 38.5495 51.4724 38.1263 51.4434C37.703 51.4144 37.2898 51.3019 36.9102 51.1124C36.5307 50.9229 36.1924 50.6602 35.9149 50.3394C35.6374 50.0185 35.4261 49.6459 35.2933 49.243C35.1605 48.8402 35.1087 48.415 35.141 47.992C35.1733 47.569 35.289 47.1566 35.4814 46.7786L37.6243 42.4928C38.0051 41.7302 38.6732 41.15 39.4818 40.88C40.2903 40.6099 41.173 40.6764 41.9357 41.0571ZM30.7328 53.9357C30.9253 53.5577 31.041 53.1452 31.0733 52.7223C31.1055 52.2993 31.0538 51.8741 30.921 51.4712C30.7881 51.0683 30.5769 50.6957 30.2994 50.3749C30.0219 50.0541 29.6836 49.7913 29.3041 49.6018C28.9245 49.4123 28.5112 49.2999 28.088 49.2709C27.6648 49.2419 27.24 49.2969 26.8382 49.4329C26.4364 49.5688 26.0654 49.783 25.7467 50.063C25.4281 50.343 25.168 50.6833 24.9814 51.0643L22.8386 55.35C22.6461 55.728 22.5304 56.1404 22.4982 56.5634C22.4659 56.9864 22.5176 57.4116 22.6504 57.8145C22.7833 58.2173 22.9945 58.5899 23.272 58.9108C23.5495 59.2316 23.8878 59.4944 24.2674 59.6839C24.6469 59.8733 25.0602 59.9858 25.4834 60.0148C25.9066 60.0438 26.3314 59.9888 26.7332 59.8528C27.1351 59.7169 27.506 59.5027 27.8247 59.2227C28.1434 58.9427 28.4035 58.6024 28.59 58.2214L30.7328 53.9357ZM8.29285 49.6286C9.05552 50.0094 9.63569 50.6775 9.90574 51.4861C10.1758 52.2946 10.1136 53.1773 9.73285 53.94L7.58999 58.2257C7.40346 58.6067 7.14336 58.947 6.82469 59.227C6.50601 59.507 6.13506 59.7211 5.73322 59.8571C5.33139 59.993 4.90662 60.0481 4.4834 60.0191C4.06019 59.9901 3.6469 59.8776 3.26736 59.6881C2.88782 59.4987 2.54955 59.2359 2.27204 58.9151C1.99453 58.5942 1.78327 58.2216 1.65045 57.8188C1.51763 57.4159 1.46587 56.9907 1.49815 56.5677C1.53044 56.1447 1.64613 55.7323 1.83856 55.3543L3.98142 51.0686C4.36222 50.3059 5.03037 49.7257 5.83891 49.4557C6.64746 49.1856 7.53016 49.2478 8.29285 49.6286ZM51.7329 53.94C51.9253 53.5619 52.041 53.1495 52.0733 52.7266C52.1055 52.3036 52.0538 51.8784 51.921 51.4755C51.7881 51.0726 51.5769 50.7 51.2994 50.3792C51.0219 50.0583 50.6836 49.7956 50.3041 49.6061C49.9245 49.4166 49.5112 49.3041 49.088 49.2751C48.6648 49.2462 48.24 49.3012 47.8382 49.4372C47.4364 49.5731 47.0654 49.7873 46.7467 50.0673C46.4281 50.3473 46.168 50.6876 45.9814 51.0686L43.8386 55.3543C43.6461 55.7323 43.5304 56.1447 43.4982 56.5677C43.4659 56.9907 43.5176 57.4159 43.6504 57.8188C43.7833 58.2216 43.9945 58.5942 44.272 58.9151C44.5495 59.2359 44.8878 59.4987 45.2674 59.6881C45.6469 59.8776 46.0602 59.9901 46.4834 60.0191C46.9066 60.0481 47.3314 59.993 47.7332 59.8571C48.1351 59.7211 48.506 59.507 48.8247 59.227C49.1434 58.947 49.4035 58.6067 49.59 58.2257L51.7329 53.94Z" fill="#2859C5"/>
</g>
<defs>
<clipPath id="clip0_388_167">
<rect width="60" height="60" fill="white"/>
</clipPath>
</defs>
</svg>
