<svg width="61" height="61" viewBox="0 0 61 61" fill="none" xmlns="http://www.w3.org/2000/svg">
<g clip-path="url(#clip0_374_45)">
<path d="M30.5 14.4589C21.6407 14.4589 14.4589 21.6407 14.4589 30.4952C14.4589 39.3545 21.6407 46.5363 30.5 46.5363C39.3593 46.5363 46.5411 39.3545 46.5411 30.4952C46.5411 21.6407 39.3593 14.4589 30.5 14.4589ZM27.0497 11.5376H33.9551C34.2744 11.5376 34.5698 11.3803 34.7557 11.1182C34.9368 10.8609 34.9797 10.5225 34.8701 10.2223L31.415 0.872114C31.272 0.486099 30.9098 0.233521 30.5 0.233521C30.0902 0.233521 29.728 0.490864 29.585 0.872114L26.1299 10.227C26.0203 10.5273 26.0632 10.8609 26.2443 11.123C26.4302 11.3851 26.7304 11.5376 27.0497 11.5376ZM46.3505 19.5343C46.5316 19.7202 46.7841 19.8202 47.0367 19.8202C47.0939 19.8202 47.1511 19.8155 47.2083 19.8059C47.5228 19.7488 47.7849 19.5438 47.9231 19.2531L52.0978 10.1937C52.2694 9.82196 52.1884 9.38829 51.9024 9.09758C51.6117 8.80688 51.1733 8.73063 50.8016 8.89743L41.7469 13.0769C41.4562 13.2103 41.2513 13.4772 41.1941 13.7917C41.1369 14.1063 41.2417 14.4256 41.4609 14.6543L46.3505 19.5343ZM60.1327 29.585L50.773 26.1347C50.4727 26.0251 50.1391 26.068 49.877 26.2491C49.6149 26.4302 49.4624 26.7256 49.4624 27.0449L49.4672 33.9503C49.4672 34.2696 49.6245 34.5698 49.8866 34.7509C50.0534 34.8605 50.2488 34.9225 50.4441 34.9225C50.5585 34.9225 50.6729 34.9034 50.7825 34.8606L60.1422 31.4102C60.5234 31.272 60.7808 30.9051 60.7808 30.4905C60.7713 30.0902 60.5187 29.728 60.1327 29.585ZM47.9231 41.7469C47.8573 41.604 47.7579 41.4791 47.6335 41.3829C47.509 41.2866 47.3631 41.2218 47.2083 41.1941C46.8938 41.1416 46.5697 41.2417 46.3505 41.4657L41.4657 46.3505C41.2417 46.5745 41.1369 46.8985 41.1941 47.213C41.2513 47.5228 41.4562 47.7945 41.7469 47.9279L50.8063 52.1026C50.935 52.1645 51.0732 52.1884 51.2162 52.1884C51.4688 52.1884 51.7166 52.0883 51.9024 51.9024C52.1931 51.6117 52.2694 51.178 52.0978 50.8063L47.9231 41.7469ZM33.9503 49.4577L27.0449 49.4624C26.7256 49.4624 26.4302 49.6197 26.2491 49.8818C26.068 50.1439 26.0251 50.4775 26.1299 50.773L29.585 60.1327C29.728 60.5139 30.0902 60.7713 30.5 60.7713C30.9098 60.7713 31.272 60.5139 31.415 60.1327L34.8701 50.773C34.9797 50.4727 34.9368 50.1391 34.7557 49.877C34.5698 49.6149 34.2744 49.4577 33.9503 49.4577ZM14.6495 41.4657C14.4255 41.2417 14.1063 41.1416 13.7917 41.1941C13.4772 41.2513 13.2103 41.4562 13.0769 41.7469L8.90219 50.8063C8.73063 51.178 8.81164 51.6165 9.10234 51.9024C9.24305 52.0433 9.42362 52.1376 9.61965 52.1726C9.81568 52.2075 10.0177 52.1814 10.1984 52.0978L19.2579 47.9184C19.4008 47.8525 19.5257 47.7532 19.6219 47.6287C19.7182 47.5042 19.7829 47.3584 19.8107 47.2035C19.8679 46.889 19.763 46.5697 19.5391 46.3457L14.6495 41.4657ZM10.5654 34.9273C10.7608 34.9273 10.9562 34.8653 11.123 34.7509C11.3851 34.5698 11.5423 34.2696 11.5423 33.9503L11.5376 27.0449C11.5376 26.888 11.4997 26.7334 11.4272 26.5942C11.3547 26.4551 11.2496 26.3355 11.1209 26.2457C10.9922 26.1558 10.8438 26.0984 10.6882 26.0782C10.5325 26.0581 10.3743 26.0758 10.227 26.1299L0.867344 29.585C0.67994 29.6537 0.518154 29.7783 0.40386 29.942C0.289567 30.1056 0.228276 30.3004 0.228276 30.5C0.228276 30.6996 0.289567 30.8944 0.40386 31.058C0.518154 31.2217 0.67994 31.3463 0.867344 31.415L10.2318 34.8653C10.3414 34.9082 10.451 34.9273 10.5654 34.9273ZM13.0816 19.2531C13.1476 19.3959 13.2471 19.5207 13.3717 19.6168C13.4962 19.7129 13.6422 19.7775 13.797 19.8051C13.9519 19.8327 14.1111 19.8225 14.2612 19.7753C14.4113 19.7282 14.5478 19.6455 14.6591 19.5343L19.5391 14.6495C19.763 14.4208 19.8631 14.1015 19.8059 13.787C19.7488 13.4772 19.5438 13.2103 19.2531 13.0769L10.1889 8.90219C9.81719 8.73063 9.38352 8.81165 9.09281 9.10235C8.80211 9.39305 8.72586 9.82672 8.89742 10.1984L13.0816 19.2531Z" fill="#FCC21B"/>
</g>
<defs>
<clipPath id="clip0_374_45">
<rect width="61" height="61" fill="white"/>
</clipPath>
</defs>
</svg>
