<svg width="19" height="19" viewBox="0 0 19 19" fill="none" xmlns="http://www.w3.org/2000/svg">
<path d="M18.1801 19L10.9183 11.7386C10.3384 12.2326 9.67163 12.6149 8.91785 12.8854C8.16406 13.156 7.40641 13.2913 6.6449 13.2913C4.79098 13.2913 3.22001 12.6473 1.93201 11.3594C0.644002 10.0707 0 8.49946 0 6.64565C0 4.79184 0.644002 3.22097 1.93201 1.93305C3.22001 0.645123 4.79098 0.00077376 6.6449 6.94786e-07C8.49882 -0.00077237 10.0702 0.643577 11.3589 1.93305C12.6477 3.22252 13.2917 4.79339 13.291 6.64565C13.291 7.45119 13.1483 8.23082 12.863 8.98456C12.5778 9.7383 12.2028 10.383 11.7382 10.9188L19 18.179L18.1801 19ZM6.64606 12.1305C8.18455 12.1305 9.48338 11.601 10.5425 10.5419C11.6017 9.4828 12.1313 8.18366 12.1313 6.64449C12.1313 5.10532 11.6017 3.80657 10.5425 2.74825C9.48338 1.68992 8.18455 1.16037 6.64606 1.1596C5.10756 1.15882 3.80835 1.68837 2.74841 2.74825C1.68848 3.80812 1.15889 5.10687 1.15967 6.64449C1.16044 8.18212 1.69002 9.48087 2.74841 10.5407C3.8068 11.6006 5.10563 12.1302 6.6449 12.1294" fill="#0722C4"/>
</svg>
